<?xml version="1.0" encoding="UTF-8"?>
<svg width="512px" height="512px" viewBox="0 0 512 512" version="1.1" xmlns="http://www.w3.org/2000/svg" xmlns:xlink="http://www.w3.org/1999/xlink">
    <title>512x512</title>
    <defs>
        <polygon id="path-1" points="0 0 416.834675 0 416.834675 475.987961 0 475.987961"></polygon>
        <polygon id="path-3" points="-2.33953621e-14 -9.35814484e-14 82.3980391 -9.35814484e-14 82.3980391 82.396759 -2.33953621e-14 82.396759"></polygon>
    </defs>
    <g id="512x512" stroke="none" stroke-width="1" fill="none" fill-rule="evenodd">
        <g id="logo" transform="translate(47.792154, 0.438740)">
            <g id="Group-4" transform="translate(0.000000, 34.750148)">
                <mask id="mask-2" fill="white">
                    <use xlink:href="#path-1"></use>
                </mask>
                <g id="Clip-2"></g>
                <path d="M208.390585,470.886894 C233.104875,470.886894 253.13955,472.028605 253.13955,473.437016 C253.13955,474.845428 233.104875,475.987961 208.390585,475.987961 C183.671357,475.987961 163.635859,474.845428 163.635859,473.437016 C163.635859,472.028605 183.671357,470.886894 208.390585,470.886894" id="Fill-1" fill="#1C1038" mask="url(#mask-2)"></path>
                <path d="M350.702714,66.1303151 C314.284862,29.7108167 263.966457,7.18281672 208.390585,7.18281672 C152.813891,7.18281672 102.500424,29.7108167 66.0801029,66.1303151 C29.6597814,102.550637 7.1326045,152.867395 7.1326045,208.442444 C7.1326045,264.016669 29.6597814,314.332605 66.0801029,350.752926 C102.500424,387.173248 152.813891,409.698778 208.390585,409.698778 C263.966457,409.698778 314.284862,387.173248 350.702714,350.752926 C387.125505,314.332605 409.649389,264.016669 409.649389,208.442444 C409.649389,152.864926 387.125505,102.54899 350.702714,66.1303151 Z M208.390585,0 C265.953543,0 318.067241,23.3322186 355.782379,61.0498264 C393.502457,98.7682572 416.834675,150.881132 416.834675,208.442444 C416.834675,266.001286 393.502457,318.114984 355.782379,355.832592 C318.062302,393.550199 265.949428,416.882418 208.390585,416.882418 C150.831743,416.882418 98.718045,393.550199 61.0004373,355.832592 C23.2820064,318.114984 -0.0493890675,266.001286 -0.0493890675,208.442444 C-0.0493890675,150.883601 23.2820064,98.7690804 61.0004373,61.0498264 C98.718045,23.3322186 150.831743,0 208.390585,0 L208.390585,0 Z" id="Fill-3" fill="#1C1038" mask="url(#mask-2)"></path>
            </g>
            <path d="M114.209749,254.333119 C115.989402,255.539035 116.455305,257.964039 115.24692,259.742045 C114.04265,261.523344 111.617646,261.988424 109.83964,260.783331 C103.540887,256.500476 99.2802572,255.674855 96.6766302,256.91699 C94.4294277,257.989556 93.1576592,260.897749 92.7625466,264.486688 C92.2941736,268.715215 93.0918071,273.686225 94.9743537,278.051395 C95.8765273,280.143023 97.0314084,282.074135 98.4118328,283.669402 L92.0159486,288.243653 C90.324373,286.143794 88.9077299,283.725376 87.7931833,281.140682 C85.400283,275.596759 84.3935691,269.202521 84.9928232,263.682469 C83.210701,262.208206 81.6812862,260.665621 80.394701,259.074469 C76.5966817,254.38827 74.8548939,249.287203 74.882881,244.21083 C74.9108682,239.161621 76.6929904,234.226006 79.9518457,229.825441 C82.8658006,225.887486 86.9782637,222.365222 92.0645145,219.586264 C61.8194727,176.826855 70.8000514,144.856489 98.8464566,123.797814 C124.492553,104.541016 166.505363,94.9117942 208.390585,94.9117942 C250.275807,94.9117942 292.292733,104.541016 317.939653,123.797814 C345.980296,144.855666 354.965814,176.826855 324.720772,219.584617 C329.805376,222.365222 333.91537,225.887486 336.829325,229.825441 C340.08818,234.226006 341.871125,239.161621 341.900759,244.21083 C341.925453,249.287203 340.182019,254.38827 336.386469,259.074469 C335.101531,260.665621 333.574585,262.205736 331.79164,263.682469 C332.387601,269.202521 331.383357,275.596759 328.992103,281.140682 C327.975511,283.494894 326.707859,285.714109 325.210547,287.677325 L318.930727,282.988656 C320.066675,281.535794 321.028116,279.854096 321.806817,278.051395 C323.69101,273.686225 324.486997,268.715215 324.02274,264.486688 C323.627627,260.897749 322.355859,257.989556 320.105363,256.91699 C317.500913,255.674855 313.242752,256.500476 306.945646,260.783331 C305.162701,261.988424 302.742637,261.523344 301.534251,259.742045 C300.329981,257.964039 300.794238,255.539035 302.572244,254.333119 C311.540476,248.236039 318.483756,247.477916 323.469582,249.856 C325.971138,251.049569 327.890727,252.973273 329.268682,255.379344 C329.647331,254.973531 330.005402,254.566071 330.336309,254.153672 C332.932527,250.948322 334.123627,247.553646 334.106341,244.241286 C334.089055,240.902585 332.842804,237.547421 330.562675,234.472129 C327.665183,230.558045 323.129621,227.118096 317.314058,224.683215 L312.689595,222.744695 L315.697389,218.738418 C345.865055,178.558765 338.560412,149.029865 313.259215,130.033183 C289.026469,111.834958 248.769441,102.737492 208.390585,102.737492 C168.010907,102.737492 127.755524,111.836605 103.521955,130.034006 C78.2207588,149.031511 70.9177621,178.559588 101.087897,218.738418 L104.096514,222.744695 L99.4671125,224.683215 C93.6515498,227.118096 89.1159871,230.558045 86.2193183,234.472129 C83.9424823,237.547421 82.6954084,240.902585 82.677299,244.241286 C82.6583666,247.553646 83.8494662,250.948322 86.446508,254.153672 C86.7798842,254.565248 87.1354855,254.975177 87.5166045,255.379344 C88.8904437,252.97492 90.8141479,251.049569 93.3157042,249.856 C98.2974148,247.477916 105.240695,248.236039 114.209749,254.333119" id="Fill-5" fill="#1C1038"></path>
            <path d="M158.881338,405.416746 C165.73901,497.317453 248.646791,497.317453 255.504463,405.416746 L158.881338,405.416746" id="Fill-6" fill="#FFFFFF"></path>
            <path d="M184.9209,471.105029 C169.691781,460.730855 157.460579,438.898418 154.98454,405.707318 L154.669273,401.504309 L259.712412,401.504309 L259.40126,405.707318 C256.921929,438.898418 244.689904,460.730855 229.462431,471.105029 C222.464,475.870251 214.836682,478.25492 207.191254,478.25492 C199.545826,478.25492 191.921801,475.870251 184.9209,471.105029 Z M163.152669,409.32836 C166.073209,437.516347 176.515704,455.931884 189.324759,464.654817 C194.976514,468.503871 201.09335,470.428399 207.191254,470.428399 C213.287511,470.428399 219.409286,468.503871 225.060219,464.654817 C237.870096,455.931884 248.310945,437.516347 251.233955,409.32836 L163.152669,409.32836 L163.152669,409.32836 Z" id="Fill-7" fill="#1C1038"></path>
            <path d="M207.191254,409.32836 L149.521286,409.32836 C147.400849,409.32836 145.673055,407.641723 145.611318,405.53528 C144.653994,396.077273 144.781582,386.4711 145.881312,376.89209 C147.006559,367.087537 149.168154,357.269814 152.240154,347.639768 L158.32818,349.501736 L171.423691,352.032926 C166.074855,352.089723 161.740141,352.16463 158.974354,352.254354 C156.434932,360.650495 154.630585,369.205505 153.648566,377.778624 C152.733222,385.734379 152.524965,393.682727 153.095408,401.504309 L261.290392,401.504309 C261.85672,393.682727 261.652579,385.734379 260.737235,377.778624 C259.750277,369.205505 257.946752,360.650495 255.407331,352.254354 L262.609904,349.133788 C265.439074,358.284759 267.434392,367.593775 268.502019,376.89209 C269.613273,386.564116 269.731807,396.264129 268.744849,405.813505 C268.540707,407.82364 266.842547,409.321775 264.864514,409.320129 L264.864514,409.32836 L207.191254,409.32836" id="Fill-8" fill="#1C1038"></path>
            <path d="M281.167846,431.670328 C279.34292,425.821016 279.057286,418.60692 281.091293,410.014868 C276.577132,390.253479 273.105904,370.534071 276.253633,361.532913 C280.469814,349.461402 291.863871,351.141453 316.450572,380.548527 C323.261325,388.693608 327.78454,397.194289 330.31573,405.309736 C332.897955,413.582405 333.425595,421.489595 332.221325,428.264129 C330.953672,435.373685 327.780424,441.306958 323.048952,445.263846 C320.82809,447.120875 318.275498,448.535048 315.429042,449.422405 C310.6169,450.926302 305.277942,451.069531 300.236965,449.794469 C296.088283,448.743305 292.105878,446.720823 288.761415,443.694096 C285.413659,440.666547 282.72854,436.665209 281.167846,431.670328 Z M288.898058,410.997711 C287.000695,418.498264 287.141453,424.587113 288.629711,429.349865 C289.752489,432.951151 291.646559,435.799254 293.986778,437.916399 C296.326997,440.03272 299.155344,441.458418 302.133505,442.213248 C305.793235,443.140939 309.651344,443.040514 313.106932,441.962186 C314.948322,441.387627 316.599563,440.472283 318.037608,439.272952 C321.334328,436.516219 323.575768,432.204553 324.51663,426.920746 C325.516759,421.304386 325.052502,414.667318 322.857158,407.632669 C320.615717,400.446559 316.573222,392.8711 310.460502,385.560695 C292.433492,364.00319 285.162598,359.682469 283.618367,364.100322 C281.048489,371.452707 284.558405,390.25101 288.911228,409.17937 L289.123601,410.100476 L288.898058,410.997711 L288.898058,410.997711 Z" id="Fill-9" fill="#1C1038"></path>
            <path d="M323.308244,395.009646 C331.183331,396.24355 336.573325,403.631331 335.339421,411.508887 C334.106341,419.387267 326.721029,424.773968 318.841003,423.542534 C310.961801,422.310277 305.575923,414.922495 306.809003,407.043293 C308.042907,399.166559 315.429042,393.778212 323.308244,395.009646" id="Fill-10" fill="#7ED2EF"></path>
            <path d="M329.59218,403.059241 C328.005145,400.88283 325.58508,399.311434 322.70899,398.861994 C319.828785,398.410907 317.037479,399.170675 314.858598,400.756887 C312.68054,402.343923 311.110791,404.765633 310.659704,407.639254 C310.208617,410.521929 310.965916,413.312412 312.557891,415.490469 C314.135871,417.65618 316.543588,419.225929 319.398277,419.683601 L319.436965,419.689363 C322.321286,420.14045 325.112592,419.380682 327.29065,417.792823 C329.45636,416.214019 331.02117,413.810418 331.481312,410.95326 L331.490367,410.912926 C331.94063,408.030251 331.179215,405.239768 329.59218,403.059241 Z M323.904206,391.158945 C328.907318,391.940116 333.119383,394.682032 335.888463,398.475113 C338.573582,402.159537 339.896386,406.836682 339.249389,411.683395 L339.190122,412.106495 C338.407305,417.109608 335.667859,421.323318 331.876424,424.089106 C328.192823,426.778341 323.512386,428.098675 318.666495,427.454148 L318.245865,427.392412 C313.242752,426.612064 309.026572,423.871794 306.260785,420.077068 C303.49582,416.286457 302.172193,411.440566 302.95501,406.448154 C303.737826,401.444219 306.478096,397.230508 310.272823,394.463074 C314.063434,391.69564 318.909325,390.376129 323.904206,391.158945 L323.904206,391.158945 Z" id="Fill-11" fill="#1C1038"></path>
            <path d="M129.278354,410.049441 C136.707293,439.398894 115.293839,450.430765 100.114109,445.692707 C82.3258135,440.141376 78.5944695,409.766277 100.930675,383.052553 C143.543563,332.087974 138.249055,371.056772 129.278354,410.049441" id="Fill-12" fill="#D1D4E2"></path>
            <path d="M125.75609,429.349865 C127.242701,424.587113 127.385106,418.498264 125.487743,410.997711 L125.262199,410.100476 L125.472926,409.17937 C129.827395,390.25101 133.333196,371.452707 130.763318,364.100322 C129.219087,359.682469 121.948193,364.00319 103.925299,385.560695 C97.8101093,392.8711 93.7709068,400.446559 91.5286431,407.632669 C89.333299,414.667318 88.8690418,421.304386 89.8691704,426.920746 C90.809209,432.204553 93.0522958,436.516219 96.3481929,439.272952 C97.7854148,440.472283 99.4374791,441.387627 101.275576,441.962186 C104.731987,443.040514 108.589273,443.140939 112.252296,442.213248 C115.230457,441.458418 118.055511,440.03272 120.394907,437.916399 C122.736772,435.799254 124.632489,432.951151 125.75609,429.349865 Z M133.290392,410.014868 C135.326045,418.60692 135.042881,425.821016 133.213839,431.670328 C131.656437,436.665209 128.972141,440.666547 125.624386,443.694096 C122.274984,446.720823 118.297518,448.743305 114.145543,449.794469 C109.107859,451.069531 103.7689,450.926302 98.9542894,449.422405 C96.1078328,448.535048 93.5560643,447.120875 91.337672,445.263846 C86.6020836,441.306958 83.4321286,435.373685 82.1644759,428.264129 C80.9577363,421.489595 81.4878457,413.582405 84.0667781,405.309736 C86.6020836,397.194289 91.1220064,388.693608 97.933582,380.548527 C122.521929,351.141453 133.911048,349.461402 138.132167,361.532913 C141.275781,370.534071 137.808669,390.253479 133.290392,410.014868 L133.290392,410.014868 Z" id="Fill-13" fill="#1C1038"></path>
            <path d="M91.0775563,395.009646 C83.2008232,396.24355 77.8124759,403.631331 79.0455563,411.508887 C80.2778135,419.387267 87.6655949,424.773968 95.5447974,423.542534 C103.419884,422.310277 108.809878,414.922495 107.575974,407.043293 C106.342894,399.166559 98.9567588,393.778212 91.0775563,395.009646" id="Fill-14" fill="#7ED2EF"></path>
            <path d="M78.4973376,398.475113 C81.2623023,394.682032 85.4784823,391.940116 90.4815949,391.158945 C95.4764759,390.376129 100.318251,391.69564 104.112977,394.463074 C107.903588,397.230508 110.646328,401.444219 111.426675,406.448154 C112.209492,411.440566 110.889981,416.286457 108.125016,420.077068 C105.355936,423.871794 101.143871,426.612064 96.1399357,427.392412 C91.1450547,428.175228 86.299164,426.854894 82.5085531,424.089106 C78.7154727,421.323318 75.9760257,417.109608 75.1907395,412.104849 C74.4128617,407.109145 75.7315498,402.26737 78.4973376,398.475113 Z M91.6735177,398.861994 C88.8007203,399.311434 86.3806559,400.88283 84.7936206,403.059241 C83.2024695,405.239768 82.4451704,408.030251 82.8962572,410.912926 C83.3448746,413.7849 84.9195627,416.205788 87.0951511,417.792823 C89.2740322,419.383151 92.0645145,420.14045 94.948836,419.689363 C97.8199871,419.2391 100.241698,417.666881 101.828733,415.490469 C103.414945,413.312412 104.177183,410.521929 103.726096,407.639254 C103.27501,404.765633 101.702791,402.346392 99.5272026,400.756887 C97.3483215,399.170675 94.5578392,398.410907 91.6735177,398.861994 L91.6735177,398.861994 Z" id="Fill-15" fill="#1C1038"></path>
            <path d="M91.5031254,283.419164 C93.9832797,280.940656 97.4084116,279.404656 101.194907,279.404656 C104.123678,279.404656 106.840077,280.325762 109.065878,281.893865 L108.384309,292.550379 L110.66526,302.993698 C108.197453,305.359434 104.857106,306.812296 101.194907,306.812296 C97.438045,306.812296 94.0260836,305.286997 91.5418135,302.821659 L91.5031254,302.782971 C89.0221479,300.297878 87.4910868,296.873569 87.4910868,293.108476 C87.4910868,289.461916 88.9291318,286.137209 91.2726431,283.673518 L91.5031254,283.419164 Z M101.194907,287.230354 C99.5691833,287.230354 98.0990354,287.889698 97.0379936,288.951563 L96.871717,289.107138 C95.9061608,290.146778 95.3151383,291.55519 95.3151383,293.108476 C95.3151383,294.741608 95.9662508,296.212579 97.0215305,297.267035 L97.0379936,297.279383 C98.091627,298.335486 99.5609518,298.988244 101.194907,298.988244 C102.826392,298.988244 104.29654,298.335486 105.350997,297.279383 L105.350997,297.267035 C106.412862,296.203524 107.072206,294.73173 107.072206,293.108476 C107.072206,291.485222 106.412862,290.015074 105.350997,288.951563 C104.287486,287.889698 102.815691,287.230354 101.194907,287.230354 L101.194907,287.230354 Z" id="Fill-16" fill="#1C1038"></path>
            <path d="M319.747293,288.951563 C318.683781,287.889698 317.211987,287.230354 315.590379,287.230354 C313.965479,287.230354 312.492862,287.889698 311.434289,288.951563 L311.417003,288.951563 C310.362547,290.005196 309.711434,291.47699 309.711434,293.108476 C309.711434,294.741608 310.362547,296.212579 311.417003,297.267035 L311.434289,297.279383 C312.485453,298.335486 313.957248,298.988244 315.590379,298.988244 C317.143666,298.988244 318.552077,298.394752 319.594186,297.428373 L319.747293,297.267035 C320.810804,296.203524 321.466032,294.73173 321.466032,293.108476 C321.466032,291.485222 320.810804,290.015074 319.747293,288.951563 Z M315.590379,279.404656 C319.373582,279.404656 322.802006,280.940656 325.278868,283.419164 C327.758199,285.898495 329.295023,289.326096 329.295023,293.108476 C329.295023,296.892502 327.758199,300.320103 325.278868,302.798611 L325.026984,303.029916 C322.56,305.373428 319.236939,306.812296 315.590379,306.812296 C311.978392,306.812296 308.681672,305.402238 306.226212,303.099884 L309.14099,290.821762 L307.702945,281.902096 C309.932039,280.329878 312.655023,279.404656 315.590379,279.404656 L315.590379,279.404656 Z" id="Fill-17" fill="#1C1038"></path>
            <path d="M183.974277,358.092965 C111.105646,351.105235 102.187627,311.379138 105.138624,277.415923 C105.974945,267.79164 107.785055,258.738624 109.316116,251.082495 C109.894791,248.169363 110.439717,245.455434 110.848,243.127563 C111.190431,241.156116 112.95609,239.790508 114.906958,239.895871 L111.413505,255.606534 L114.106855,268.390071 C113.631074,271.544386 113.217852,274.79254 112.933042,278.090084 C110.36728,307.650264 118.046457,342.111486 179.72764,349.758559 C178.770315,346.819087 178.25173,343.682058 178.25173,340.423203 C178.25173,338.264077 180.004219,336.510765 182.165814,336.510765 C184.326585,336.510765 186.077428,338.264077 186.077428,340.423203 C186.077428,346.585312 188.577338,352.16463 192.614894,356.202186 C196.649981,360.238096 202.230122,362.734714 208.390585,362.734714 C214.555164,362.734714 220.132836,360.238096 224.171215,356.202186 C228.207949,352.16463 230.705389,346.585312 230.705389,340.423203 C230.705389,338.264077 232.457878,336.510765 234.619473,336.510765 C236.776129,336.510765 238.529441,338.264077 238.529441,340.423203 C238.529441,343.682058 238.014971,346.819087 237.057646,349.758559 C298.734714,342.111486 306.41883,307.650264 303.848129,278.090084 C303.477711,273.810521 302.899859,269.608334 302.232283,265.587241 L304.022637,261.382585 L307.791846,252.708219 C309.247177,260.006277 310.868785,268.466624 311.642547,277.415923 C314.59519,311.379138 305.677994,351.105235 232.811833,358.092965 C231.870971,359.386958 230.832977,360.606045 229.701145,361.735408 C224.246945,367.187138 216.712643,370.563704 208.390585,370.563704 C200.068527,370.563704 192.534225,367.187138 187.080026,361.735408 C185.952309,360.606045 184.914315,359.386958 183.974277,358.092965" id="Fill-18" fill="#1C1038"></path>
            <path d="M183.910071,226.502379 C176.719846,219.314624 166.788527,214.866315 155.817569,214.866315 C144.849904,214.866315 134.915293,219.314624 127.729183,226.502379 C120.539781,233.689312 116.093942,243.621453 116.093942,254.590765 C116.093942,265.560077 120.539781,275.493042 127.729183,282.680797 C134.915293,289.868553 144.849904,294.314392 155.817569,294.314392 C166.788527,294.314392 176.719846,289.868553 183.910071,282.680797 C191.09618,275.493042 195.542019,265.560077 195.542019,254.590765 C195.542019,243.621453 191.09618,233.689312 183.910071,226.502379 Z M155.817569,207.040617 C168.949299,207.040617 180.838894,212.364759 189.440823,220.968334 C198.045222,229.572733 203.370186,241.460682 203.370186,254.590765 C203.370186,267.719203 198.045222,279.608797 189.440823,288.214019 C180.838894,296.815949 168.949299,302.140913 155.817569,302.140913 C142.688309,302.140913 130.802006,296.818418 122.196785,288.214019 C113.592386,279.608797 108.269891,267.721672 108.269891,254.590765 C108.269891,241.462328 113.592386,229.572733 122.196785,220.968334 C130.802006,212.364759 142.688309,207.040617 155.817569,207.040617 L155.817569,207.040617 Z" id="Fill-19" fill="#1C1038"></path>
            <path d="M227.339524,220.968334 C235.946392,212.364759 247.834341,207.040617 260.963601,207.040617 C274.092862,207.040617 285.98328,212.364759 294.586855,220.968334 C303.188785,229.572733 308.515395,241.460682 308.515395,254.590765 C308.515395,267.721672 303.188785,279.608797 294.586855,288.214019 C285.98328,296.818418 274.092862,302.140913 260.963601,302.140913 C247.834341,302.140913 235.946392,296.815949 227.339524,288.214019 C218.737595,279.608797 213.4151,267.719203 213.4151,254.590765 C213.4151,241.460682 218.737595,229.572733 227.339524,220.968334 Z M260.963601,214.866315 C249.995113,214.866315 240.060502,219.314624 232.875215,226.502379 C225.68499,233.689312 221.239151,243.621453 221.239151,254.590765 C221.239151,265.560077 225.68499,275.493042 232.875215,282.680797 C240.060502,289.868553 249.995113,294.314392 260.963601,294.314392 C271.935383,294.314392 281.865055,289.868553 289.05528,282.680797 C296.241389,275.493042 300.687228,265.560077 300.687228,254.590765 C300.687228,243.621453 296.241389,233.689312 289.05528,226.502379 C281.865055,219.314624 271.935383,214.866315 260.963601,214.866315 L260.963601,214.866315 Z" id="Fill-20" fill="#1C1038"></path>
            <path d="M136.140965,216.166071 C137.6391,210.492913 138.353595,203.616309 138.11735,195.286019 C138.110765,195.133736 138.10665,194.978984 138.11735,194.823408 C138.242469,192.670045 140.091267,191.029505 142.241338,191.155447 L143.696669,191.227061 L145.151177,191.237762 C150.473672,191.237762 155.578855,190.362752 160.323498,188.751023 C163.733814,187.593672 166.964682,186.059318 169.964244,184.19982 C167.344977,181.636527 164.981711,178.813942 162.910662,175.771576 C161.706392,173.9911 162.169826,171.568566 163.950302,170.361003 C165.730778,169.154264 168.155781,169.620167 169.360051,171.400643 C171.925814,175.172322 175.029093,178.55465 178.557942,181.437325 C178.660013,181.509762 178.756322,181.588785 178.849338,181.671923 C181.17474,183.541299 183.682881,185.19501 186.341659,186.603421 C192.912875,190.082881 200.417543,192.054328 208.390585,192.054328 C216.367743,192.054328 223.872412,190.082881 230.441981,186.603421 C233.100759,185.19501 235.606431,183.541299 237.933479,181.671923 C238.027318,181.588785 238.125273,181.509762 238.223228,181.437325 C241.754547,178.55465 244.855357,175.172322 247.421119,171.400643 C248.628682,169.620167 251.050392,169.154264 252.833338,170.361003 C254.611344,171.568566 255.078894,173.9911 253.871331,175.771576 C251.803576,178.813942 249.437839,181.63735 246.816926,184.19982 C249.820605,186.059318 253.05065,187.593672 256.457672,188.751023 C261.205608,190.362752 266.310791,191.237762 271.634109,191.237762 L273.083678,191.227061 L274.53901,191.155447 C276.69155,191.029505 278.537878,192.670045 278.666289,194.823408 C278.674521,194.977338 278.674521,195.129621 278.666289,195.280257 C278.419344,203.983434 279.206277,211.101222 280.844347,216.916785 L272.11483,213.770701 C271.305672,209.39236 270.858701,204.508605 270.824952,199.057698 C264.941068,198.971267 259.269556,197.955498 253.952,196.148682 C249.174431,194.527897 244.689904,192.260116 240.59308,189.452347 C238.525325,190.950482 236.347267,192.308682 234.079486,193.512129 C226.403601,197.576849 217.660913,199.880026 208.390585,199.880026 C199.124373,199.880026 190.381685,197.577672 182.706624,193.512129 C180.434727,192.309505 178.258315,190.950482 176.188913,189.452347 C172.095383,192.260116 167.607563,194.527897 162.833286,196.148682 C157.51326,197.955498 151.83928,198.971267 145.956219,199.057698 C145.926585,203.985904 145.558637,208.447383 144.887768,212.491524 L136.140965,216.166071" id="Fill-21" fill="#1C1038"></path>
            <path d="M208.390585,381.912489 C210.556296,381.912489 212.308785,380.157531 212.308785,377.995936 C212.308785,375.830225 210.556296,374.075267 208.390585,374.075267 C206.229814,374.075267 204.472386,375.830225 204.472386,377.995936 C204.472386,380.157531 206.229814,381.912489 208.390585,381.912489" id="Fill-22" fill="#1C1038"></path>
            <path d="M208.390585,397.586109 C210.556296,397.586109 212.308785,395.830328 212.308785,393.665441 C212.308785,391.503846 210.556296,389.748887 208.390585,389.748887 C206.229814,389.748887 204.472386,391.503846 204.472386,393.665441 C204.472386,395.830328 206.229814,397.586109 208.390585,397.586109" id="Fill-23" fill="#1C1038"></path>
            <path d="M208.390585,102.736669 C168.010907,102.736669 127.755524,111.834958 103.521955,130.033183 C78.2207588,149.029865 70.9152926,178.558765 101.086251,218.737595 L104.096514,222.744695 L99.4671125,224.682392 C93.6515498,227.117273 89.1159871,230.558045 86.2193183,234.471305 C83.9424823,237.547421 82.6954084,240.901762 82.6748296,244.241286 C82.6583666,247.553646 83.8494662,250.948322 86.4440386,254.153672 L87.514135,255.379344 C88.8904437,252.973273 90.8141479,251.049569 93.3157042,249.855177 C97.165582,248.017904 102.185981,248.053299 108.404064,250.975486 C109.282367,239.28674 114.38755,228.774277 122.195138,220.968334 C126.487871,216.678071 131.593055,213.205196 137.262096,210.799125 C137.979061,206.28908 138.281158,201.147678 138.11735,195.286019 C138.109119,195.132913 138.10665,194.978984 138.114881,194.820939 C138.242469,192.670045 140.088797,191.028682 142.241338,191.153801 L143.696669,191.227061 L145.151177,191.236939 C150.473672,191.236939 155.578032,190.361106 160.323498,188.750199 C163.731344,187.592849 166.963035,186.057672 169.964244,184.198997 C167.342508,181.636527 164.979241,178.812296 162.910662,175.771576 C161.703923,173.9911 162.169826,171.566096 163.950302,170.36018 C165.730778,169.154264 168.154135,169.620167 169.360051,171.400643 C171.925814,175.172322 175.029093,178.55465 178.557942,181.436502 L178.847691,181.671923 C181.17474,183.540476 183.682881,185.194186 186.340013,186.603421 C192.910405,190.082881 200.415074,192.053505 208.390585,192.053505 C216.367743,192.053505 223.872412,190.082881 230.441981,186.603421 C233.100759,185.194186 235.606431,183.540476 237.933479,181.671923 L238.223228,181.436502 C241.754547,178.55465 244.855357,175.172322 247.421119,171.400643 C248.628682,169.620167 251.050392,169.154264 252.833338,170.36018 C254.611344,171.566096 255.078894,173.9911 253.871331,175.771576 C251.79946,178.812296 249.437839,181.63735 246.816926,184.198997 C249.820605,186.057672 253.05065,187.592849 256.457672,188.750199 C261.205608,190.361106 266.306675,191.236939 271.62917,191.236939 L273.083678,191.227061 L274.53901,191.153801 C276.69155,191.028682 278.537878,192.670045 278.666289,194.820939 C278.674521,194.976514 278.674521,195.129621 278.666289,195.280257 C278.500836,201.143563 278.802932,206.286611 279.521543,210.799125 C285.188939,213.205196 290.298238,216.678071 294.586855,220.968334 C302.393621,228.774277 307.498804,239.285916 308.379576,250.975486 C314.59519,248.053299 319.615588,248.017904 323.466289,249.855177 C325.967846,251.049569 327.890727,252.973273 329.268682,255.376875 L330.336309,254.153672 C332.932527,250.948322 334.123627,247.552 334.106341,244.241286 C334.089055,240.901762 332.842804,237.547421 330.562675,234.471305 C327.665183,230.558045 323.129621,227.117273 317.314058,224.682392 L312.689595,222.744695 L315.697389,218.737595 C345.865055,178.558765 338.560412,149.029865 313.259215,130.033183 C289.026469,111.834958 248.769441,102.736669 208.390585,102.736669" id="Fill-24" fill="#D1D4E2"></path>
            <path d="M193.97227,299.115833 L222.8089,299.115833 C224.969672,299.115833 226.722984,300.866675 226.722984,303.027447 C226.722984,308.08818 224.668399,312.673132 221.354392,315.991254 C218.035447,319.306907 213.452965,321.359846 208.390585,321.359846 C203.349608,321.359846 198.767125,319.306907 195.444064,315.991254 L195.418547,315.961621 C192.106186,312.638559 190.058186,308.065132 190.058186,303.027447 C190.058186,300.866675 191.810675,299.115833 193.97227,299.115833 Z M234.079486,193.512129 C226.403601,197.576849 217.660913,199.880026 208.390585,199.880026 C199.124373,199.880026 190.381685,197.577672 182.706624,193.512129 C180.434727,192.309505 178.258315,190.950482 176.188913,189.452347 C172.095383,192.260116 167.607563,194.527897 162.833286,196.148682 C157.51326,197.955498 151.83928,198.971267 145.956219,199.057698 C145.934817,202.290212 145.76854,205.324347 145.470559,208.170804 C148.801852,207.431614 152.265672,207.040617 155.817569,207.040617 C168.949299,207.040617 180.838894,212.364759 189.440823,220.968334 C198.045222,229.572733 203.370186,241.460682 203.370186,254.590765 C203.370186,267.719203 198.045222,279.608797 189.440823,288.214019 C180.838894,296.815949 168.949299,302.140913 155.817569,302.140913 C142.688309,302.140913 130.802006,296.818418 122.196785,288.214019 C118.544463,284.560875 115.481518,280.315061 113.168463,275.637093 C113.083678,276.450367 113.005479,277.266932 112.933042,278.090084 C110.36728,307.650264 118.046457,342.111486 179.72764,349.758559 C178.770315,346.819087 178.25173,343.682058 178.25173,340.423203 C178.25173,338.264077 180.004219,336.510765 182.165814,336.510765 C184.326585,336.510765 186.077428,338.264077 186.077428,340.423203 C186.077428,346.585312 188.577338,352.16463 192.614894,356.202186 C196.649981,360.238096 202.230122,362.734714 208.390585,362.734714 C214.555164,362.734714 220.132836,360.238096 224.171215,356.202186 C228.207949,352.16463 230.705389,346.585312 230.705389,340.423203 C230.705389,338.264077 232.457878,336.510765 234.619473,336.510765 C236.776129,336.510765 238.529441,338.264077 238.529441,340.423203 C238.529441,343.682058 238.014971,346.819087 237.057646,349.758559 C298.734714,342.111486 306.41883,307.650264 303.848129,278.090084 C303.779807,277.266932 303.699961,276.450367 303.614354,275.637093 C301.300476,280.315061 298.236707,284.560875 294.586855,288.214019 C285.98328,296.818418 274.092862,302.140913 260.963601,302.140913 C247.834341,302.140913 235.946392,296.815949 227.339524,288.214019 C218.737595,279.608797 213.4151,267.719203 213.4151,254.590765 C213.4151,241.460682 218.737595,229.572733 227.339524,220.968334 C235.946392,212.364759 247.834341,207.040617 260.963601,207.040617 C264.515498,207.040617 267.978495,207.431614 271.309788,208.170804 C271.01263,205.323524 270.846354,202.290212 270.824952,199.057698 C264.941068,198.971267 259.269556,197.955498 253.952,196.148682 C249.174431,194.527897 244.689904,192.260116 240.59308,189.452347 C238.525325,190.950482 236.347267,192.308682 234.079486,193.512129 L234.079486,193.512129 Z" id="Fill-25" fill="#FACFA0"></path>
            <path d="M260.963601,214.866315 C249.995113,214.866315 240.060502,219.314624 232.875215,226.502379 C225.68499,233.689312 221.239151,243.621453 221.239151,254.590765 C221.239151,265.560077 225.68499,275.493042 232.875215,282.680797 C240.060502,289.868553 249.995113,294.314392 260.963601,294.314392 C271.935383,294.314392 281.865055,289.868553 289.05528,282.680797 C296.241389,275.493042 300.687228,265.560077 300.687228,254.590765 C300.687228,243.621453 296.241389,233.689312 289.05528,226.502379 C281.865055,219.314624 271.935383,214.866315 260.963601,214.866315" id="Fill-26" fill="#FFFFFF"></path>
            <path d="M195.542019,254.590765 C195.542019,243.621453 191.09618,233.689312 183.910071,226.502379 C176.719846,219.314624 166.788527,214.866315 155.817569,214.866315 C144.849904,214.866315 134.915293,219.314624 127.729183,226.502379 C120.539781,233.689312 116.093942,243.621453 116.093942,254.590765 C116.093942,265.560077 120.539781,275.493042 127.729183,282.680797 C134.915293,289.868553 144.849904,294.314392 155.817569,294.314392 C166.788527,294.314392 176.719846,289.868553 183.910071,282.680797 C191.09618,275.493042 195.542019,265.560077 195.542019,254.590765" id="Fill-27" fill="#FFFFFF"></path>
            <path d="M207.118817,306.942354 L198.630482,306.942354 C199.163061,308.271743 199.954109,309.464489 200.947653,310.455563 L200.961646,310.472849 C202.850778,312.36445 205.480746,313.534148 208.390585,313.534148 C211.292193,313.534148 213.921338,312.357865 215.822817,310.455563 C216.814714,309.462019 217.609878,308.269273 218.145749,306.942354 L207.118817,306.942354 Z M193.97227,299.115833 L222.8089,299.115833 C224.969672,299.115833 226.722984,300.866675 226.722984,303.027447 C226.722984,308.08818 224.668399,312.673132 221.354392,315.991254 C218.035447,319.306907 213.452965,321.359846 208.390585,321.359846 C203.349608,321.359846 198.767125,319.306907 195.444064,315.991254 L195.418547,315.961621 C192.106186,312.638559 190.058186,308.065132 190.058186,303.027447 C190.058186,300.866675 191.810675,299.115833 193.97227,299.115833 L193.97227,299.115833 Z" id="Fill-28" fill="#1C1038"></path>
            <path d="M218.145749,306.942354 L198.630482,306.942354 C199.163061,308.271743 199.954109,309.464489 200.947653,310.455563 L200.961646,310.472849 C202.850778,312.36445 205.480746,313.534148 208.390585,313.534148 C211.292193,313.534148 213.921338,312.357865 215.822817,310.455563 C216.814714,309.462019 217.609878,308.269273 218.145749,306.942354" id="Fill-29" fill="#F58F7E"></path>
            <path d="M309.089955,259.411138 C310.123833,265.009389 311.093505,271.089183 311.642547,277.415923 C311.714984,278.248952 311.783305,279.085273 311.838457,279.925711 C313.029556,279.584926 314.288977,279.404656 315.590379,279.404656 C317.381556,279.404656 319.092064,279.749556 320.661814,280.374328 C321.079151,279.630199 321.461916,278.853968 321.806817,278.051395 C323.69101,273.686225 324.486997,268.715215 324.02274,264.486688 C323.627627,260.897749 322.355859,257.989556 320.105363,256.91699 C317.811241,255.822199 314.225595,256.335023 309.089955,259.411138" id="Fill-30" fill="#FACFA0"></path>
            <path d="M105.138624,277.415923 C105.686842,271.089183 106.657338,265.00692 107.696154,259.408669 C102.558045,256.335023 98.974045,255.81973 96.6766302,256.91699 C94.4294277,257.989556 93.1576592,260.897749 92.7625466,264.486688 C92.2941736,268.715215 93.0918071,273.686225 94.9743537,278.051395 C95.3209003,278.853968 95.7020193,279.630199 96.1234727,280.374328 C97.6907524,279.749556 99.4029068,279.404656 101.194907,279.404656 C102.493839,279.404656 103.751614,279.584926 104.942714,279.925711 C105.001981,279.085273 105.066186,278.248952 105.138624,277.415923" id="Fill-31" fill="#FACFA0"></path>
            <path d="M104.662019,288.362186 C103.691524,287.651807 102.492193,287.230354 101.194907,287.230354 C99.5691833,287.230354 98.0990354,287.889698 97.0379936,288.951563 L96.871717,289.107138 C95.9061608,290.146778 95.3151383,291.55519 95.3151383,293.108476 C95.3151383,294.741608 95.9662508,296.212579 97.0215305,297.267035 L97.0379936,297.279383 C98.091627,298.335486 99.5609518,298.988244 101.194907,298.988244 C102.717736,298.988244 104.099807,298.417801 105.133685,297.485994 C104.820887,294.448566 104.67519,291.400437 104.662019,288.362186" id="Fill-32" fill="#7ED2EF"></path>
            <path d="M312.119151,288.362186 C312.106804,291.400437 311.961929,294.448566 311.646662,297.485994 C312.68054,298.42027 314.063434,298.988244 315.590379,298.988244 C317.143666,298.988244 318.552077,298.394752 319.594186,297.428373 L319.747293,297.267035 C320.810804,296.203524 321.466032,294.73173 321.466032,293.108476 C321.466032,291.485222 320.810804,290.015074 319.747293,288.951563 C318.683781,287.889698 317.211987,287.230354 315.590379,287.230354 C314.293093,287.230354 313.093762,287.651807 312.119151,288.362186" id="Fill-33" fill="#7ED2EF"></path>
            <path d="M171.929929,352.130881 C171.594084,355.815305 171.810572,359.122727 172.59092,361.890984 C173.397608,364.751434 174.810135,366.989582 176.830971,368.36836 C178.885556,369.770186 181.711434,370.384257 185.339884,369.989145 C189.351923,369.552875 194.214277,367.913158 199.958225,364.807408 L205.480746,367.357531 L207.191254,366.985466 L207.191254,369.676347 C199.005016,374.585621 191.989299,377.120103 186.163035,377.753106 C180.582894,378.361415 176.001235,377.255923 172.427113,374.817749 C168.819241,372.356527 166.373659,368.627653 165.071434,364.00072 C163.978289,360.11627 163.697595,355.579061 164.221119,350.640154 L171.929929,352.130881" id="Fill-34" fill="#1C1038"></path>
            <path d="M242.452579,352.130881 C242.788424,355.815305 242.571113,359.122727 241.792412,361.890984 C240.988193,364.751434 239.575666,366.989582 237.550714,368.36836 C235.495305,369.770186 232.671074,370.384257 229.045916,369.989145 C225.033878,369.552875 220.170701,367.913158 214.42346,364.807408 L208.905878,367.357531 L207.191254,366.985466 L207.191254,369.676347 C215.380785,374.585621 222.391563,377.120103 228.221119,377.753106 C233.797968,378.361415 238.38045,377.255923 241.953749,374.817749 C245.561621,372.356527 248.008849,368.627653 249.314367,364.00072 C250.408334,360.11627 250.684913,355.579061 250.161389,350.640154 L242.452579,352.130881" id="Fill-35" fill="#1C1038"></path>
            <path d="M176.830971,368.36836 C178.885556,369.770186 181.711434,370.384257 185.339884,369.989145 C188.08427,369.691164 191.225415,368.826855 194.776489,367.318842 C191.921801,365.87092 189.324759,363.977672 187.080026,361.735408 C185.952309,360.606045 184.914315,359.386958 183.974277,358.092965 C179.698006,357.683035 175.643164,357.159511 171.798225,356.53227 C171.873955,358.480669 172.13654,360.278431 172.59092,361.890984 C173.397608,364.751434 174.810135,366.989582 176.830971,368.36836" id="Fill-36" fill="#FFFFFF"></path>
            <path d="M187.267704,369.699395 C189.530547,369.266418 192.032103,368.484424 194.776489,367.318842 C191.921801,365.87092 189.324759,363.977672 187.080026,361.735408 C185.952309,360.606045 184.914315,359.386958 183.974277,358.092965 C180.629814,357.772759 177.417878,357.382585 174.338469,356.927383 C174.443833,358.590971 174.694894,360.140141 175.09083,361.546084 C175.896695,364.406534 177.311691,366.643035 179.332527,368.02346 C181.27681,369.350379 183.914186,369.971859 187.267704,369.699395" id="Fill-37" fill="#F58F7E"></path>
            <path d="M229.701145,361.735408 C227.174071,364.261659 224.200026,366.345055 220.903305,367.848952 C223.928386,369.030997 226.638199,369.727383 229.045916,369.989145 C232.671074,370.384257 235.495305,369.770186 237.550714,368.36836 C239.575666,366.989582 240.988193,364.751434 241.792412,361.890984 C242.217981,360.382971 242.473158,358.711974 242.566997,356.90845 C239.448077,357.371884 236.198277,357.76782 232.811833,358.092965 C231.870971,359.386958 230.832977,360.606045 229.701145,361.735408" id="Fill-38" fill="#F58F7E"></path>
            <path d="M251.233955,409.32836 L243.609106,409.32836 C243.085582,413.586521 242.380141,417.849621 241.511717,422.111074 C240.405402,427.547987 239.04391,432.961029 237.456875,438.34773 C237.023074,439.82364 235.794109,440.849286 234.372527,441.097878 C214.291756,444.550997 200.089929,444.550997 180.013273,441.097878 C178.591691,440.849286 177.357788,439.82364 176.923987,438.34773 C175.341891,432.961029 173.976283,427.547987 172.869968,422.111074 C172.002367,417.849621 171.300219,413.586521 170.776695,409.32836 L163.152669,409.32836 C166.073209,437.516347 176.515704,455.931884 189.324759,464.654817 C194.976514,468.503871 201.09335,470.428399 207.191254,470.428399 C213.287511,470.428399 219.409286,468.503871 225.060219,464.654817 C237.870096,455.931884 248.310945,437.516347 251.233955,409.32836" id="Fill-39" fill="#7ED2EF"></path>
            <path d="M109.365505,442.72854 C102.849441,440.510971 98.2891833,434.903666 96.288926,427.369363 C96.2403601,427.377595 96.1893248,427.385826 96.1399357,427.392412 C94.0211447,427.724141 91.9328103,427.679691 89.9366688,427.305158 C90.9203344,432.411164 93.1321415,436.582071 96.3481929,439.272952 C97.7854148,440.472283 99.4374791,441.387627 101.275576,441.962186 C103.832283,442.762289 106.610418,443.021582 109.365505,442.72854" id="Fill-40" fill="#FFFFFF"></path>
            <path d="M99.1691318,391.899781 C100.126457,392.22081 101.050032,392.623331 101.930804,393.094997 C104.210932,388.791563 107.093608,384.469196 110.630688,380.238199 C117.008463,372.609235 122.313672,366.996167 126.692013,363.096077 C122.658572,364.962161 115.515267,371.697183 103.925299,385.560695 C102.173633,387.655614 100.590714,389.774405 99.1691318,391.899781" id="Fill-41" fill="#FFFFFF"></path>
            <path d="M283.618367,364.100322 C281.048489,371.452707 284.558405,390.25101 288.911228,409.17937 L289.123601,410.100476 L288.898058,410.997711 C287.000695,418.498264 287.141453,424.587113 288.629711,429.349865 C289.752489,432.951151 291.646559,435.799254 293.986778,437.916399 C296.326997,440.03272 299.155344,441.458418 302.133505,442.213248 C305.793235,443.140939 309.651344,443.040514 313.106932,441.962186 C314.948322,441.387627 316.599563,440.472283 318.037608,439.272952 C321.253659,436.582071 323.466289,432.411164 324.444193,427.305158 C322.584695,427.651704 320.641235,427.71591 318.666495,427.454148 L318.245865,427.392412 C313.242752,426.612064 309.026572,423.871794 306.260785,420.077068 C303.49582,416.286457 302.172193,411.440566 302.95501,406.448154 C303.737826,401.444219 306.478096,397.230508 310.272823,394.463074 C311.774251,393.36746 313.437839,392.499035 315.21173,391.899781 C313.795087,389.774405 312.21299,387.655614 310.460502,385.560695 C292.433492,364.00319 285.162598,359.682469 283.618367,364.100322" id="Fill-42" fill="#D1D4E2"></path>
            <path d="M289.123601,410.100476 L288.898058,410.997711 C287.000695,418.498264 287.141453,424.587113 288.629711,429.349865 C289.752489,432.951151 291.646559,435.799254 293.986778,437.916399 C296.326997,440.03272 299.155344,441.458418 302.133505,442.213248 C305.793235,443.140939 309.651344,443.040514 313.106932,441.962186 C313.424669,441.864232 313.739936,441.753929 314.050264,441.634572 C312.655023,441.679023 311.25155,441.585183 309.859601,441.344823 C306.831228,440.823768 303.904103,439.621968 301.406662,437.693325 C298.905106,435.763859 296.798662,433.072154 295.394367,429.566354 C293.548862,424.933659 292.931498,418.875267 294.241955,411.250418 L294.399177,410.338367 L294.118482,409.436193 C288.307035,390.904592 283.354135,372.430611 285.345338,364.905363 C285.682006,363.645119 286.506804,363.026932 287.948965,363.220373 C285.550302,362.026804 284.192926,362.46472 283.618367,364.100322 C281.048489,371.452707 284.558405,390.25101 288.911228,409.17937 L289.123601,410.100476" id="Fill-43" fill="#FFFFFF"></path>
            <path d="M170.380759,405.796219 C170.172502,403.654379 171.738135,401.744669 173.882444,401.533942 C176.026752,401.323215 177.937286,402.890495 178.145543,405.033158 C178.660013,410.209132 179.460116,415.381814 180.51128,420.551203 C181.404399,424.943537 182.489312,429.35892 183.736386,433.790765 C200.451293,436.423203 213.929569,436.423203 230.646122,433.790765 C231.896489,429.35892 232.977286,424.943537 233.870405,420.551203 C234.921569,415.381814 235.721672,410.209132 236.236141,405.033158 C236.449338,402.890495 238.359048,401.323215 240.499241,401.533942 C242.64355,401.744669 244.213299,403.654379 244.000103,405.796219 C243.460116,411.231486 242.618032,416.670868 241.511717,422.111074 C240.405402,427.547987 239.04391,432.961029 237.456875,438.34773 C237.023074,439.82364 235.794109,440.849286 234.372527,441.097878 C214.291756,444.550997 200.089929,444.550997 180.013273,441.097878 C178.591691,440.849286 177.357788,439.82364 176.923987,438.34773 C175.341891,432.961029 173.976283,427.547987 172.869968,422.111074 C171.764476,416.670868 170.921569,411.231486 170.380759,405.796219" id="Fill-44" fill="#1C1038"></path>
            <path d="M180.51128,420.551203 C181.404399,424.943537 182.489312,429.35892 183.736386,433.790765 C200.451293,436.423203 213.929569,436.423203 230.646122,433.790765 C231.896489,429.35892 232.977286,424.943537 233.870405,420.551203 C234.632643,416.813273 235.261531,413.072051 235.74719,409.32836 L178.638611,409.32836 C179.12427,413.072051 179.753981,416.813273 180.51128,420.551203" id="Fill-45" fill="#F58F7E"></path>
            <path d="M235.74719,409.32836 L232.117916,409.32836 C231.875087,412.542765 231.535125,415.760463 231.097209,418.983923 C230.492193,423.425646 229.701145,427.901119 228.74382,432.407048 C221.213633,434.101916 214.317273,435.208232 207.445608,435.763859 C214.913235,435.748219 222.384154,435.090521 230.646122,433.790765 C231.896489,429.35892 232.977286,424.943537 233.870405,420.551203 C234.632643,416.813273 235.261531,413.072051 235.74719,409.32836" id="Fill-46" fill="#FFFFFF"></path>
            <path d="M118.02917,225.729441 C84.7335305,189.327228 76.3266881,155.26935 117.331961,127.207305 C142.341762,110.089878 182.956862,102.764656 223.297852,104.5369 C243.940836,105.442367 264.443061,108.725916 282.686559,114.297003 C260.89528,106.590662 234.670508,102.737492 208.390585,102.737492 C168.010907,102.737492 127.755524,111.836605 103.521955,130.034006 C78.2207588,149.031511 70.9177621,178.559588 101.087897,218.738418 L104.096514,222.744695 L99.4671125,224.683215 C93.6515498,227.118096 89.1159871,230.558045 86.2193183,234.472129 C83.9424823,237.547421 82.6954084,240.902585 82.677299,244.241286 C82.6583666,247.553646 83.8494662,250.948322 86.446508,254.153672 L87.5166045,255.379344 C88.8904437,252.97492 90.8141479,251.049569 93.3157042,249.856 C93.4877428,249.773685 93.6647203,249.694662 93.8408746,249.620579 C83.3045402,239.880232 102.269119,227.420193 118.02917,225.729441" id="Fill-47" fill="#FFFFFF"></path>
            <g id="Group-51" transform="translate(167.192705, 0.000000)">
                <mask id="mask-4" fill="white">
                    <use xlink:href="#path-3"></use>
                </mask>
                <g id="Clip-49"></g>
                <path d="M35.4333532,4.352 C15.0834111,7.53759486 1.16721817,26.6165916 4.35198987,46.9648875 C7.53593842,67.3140064 26.6182278,81.2310225 46.9665236,78.0462508 C67.3156426,74.8614791 81.2318355,55.7816592 78.0454175,35.4325402 C74.8589995,15.0842444 55.781649,1.1672283 35.4333532,4.352" id="Fill-48" fill="#7ED2EF" mask="url(#mask-4)"></path>
                <path d="M7.91952685,16.9297492 C14.1310252,8.4109582 23.5972632,2.26037299 34.8373918,0.500475884 C46.0651732,-1.25695177 56.9521699,1.70721543 65.4701378,7.91953698 C73.9872825,14.1335048 80.1386908,23.5964502 81.8961185,34.8365788 L81.9603243,35.2440386 C83.5811088,46.3294148 80.6152953,57.055074 74.48035,65.4693248 C68.2647359,73.9872926 58.8026137,80.1395241 47.562485,81.8977749 L47.1542021,81.957865 C36.0688259,83.581119 25.3415204,80.6161286 16.9297391,74.479537 C8.40847862,68.2655691 2.25871656,58.8009775 0.498819454,47.5641415 L0.439552573,47.1558585 C-1.18534775,36.0696592 1.78046576,25.3448232 7.91952685,16.9297492 Z M36.0284915,8.20352412 C26.9195011,9.63004502 19.2493789,14.6125788 14.2158098,21.5163473 C9.17812492,28.4201158 6.77699309,37.2517042 8.20433714,46.3697492 L8.20927605,46.4059678 C9.64238215,55.497672 14.6208002,63.1546238 21.5146908,68.1824309 C28.416813,73.2184695 37.2500477,75.6212476 46.3672696,74.1939035 L46.4397069,74.1832026 C55.5182407,72.7443344 63.1595526,67.7675627 68.184067,60.8835498 C73.216813,53.9773119 75.6212375,45.1465466 74.1955397,36.0317942 L74.1873082,35.9947524 C72.7583178,26.9014019 67.7757841,19.243627 60.8835397,14.2149968 C53.9781249,9.1789582 45.1465365,6.77700322 36.0284915,8.20352412 L36.0284915,8.20352412 Z" id="Fill-50" fill="#1C1038" mask="url(#mask-4)"></path>
            </g>
            <path d="M237.389376,32.4543794 C240.312386,51.1357942 227.535434,68.6532733 208.854019,71.5771061 C202.416977,72.5846431 196.120695,71.7285659 190.509273,69.408926 C197.115884,73.5995884 205.216514,75.4985981 213.559974,74.1939035 L213.632412,74.1832026 C222.710945,72.7443344 230.352257,67.7675627 235.376772,60.8835498 C240.409518,53.9773119 242.813942,45.1465466 241.388244,36.0317942 L241.380013,35.9947524 C240.035807,27.4372733 235.542225,20.1523859 229.275576,15.1319871 C233.432489,19.853582 236.343151,25.7769775 237.389376,32.4543794" id="Fill-52" fill="#FFFFFF"></path>
            <polygon id="Fill-53" fill="#1C1038" points="204.476502 98.4233569 212.304669 98.4233569 212.304669 79.2225338 204.476502 79.2225338"></polygon>
            <path d="M260.963601,220.969158 C251.680103,220.969158 243.27326,224.733428 237.18935,230.818161 C231.104617,236.898778 227.339524,245.307267 227.339524,254.590765 C227.339524,263.875087 231.104617,272.281929 237.18935,278.364193 C243.27326,284.448926 251.680103,288.21155 260.963601,288.21155 C270.250392,288.21155 278.653119,284.448926 284.737852,278.364193 C290.820939,272.281929 294.586855,263.875087 294.586855,254.590765 C294.586855,245.307267 290.820939,236.898778 284.737852,230.818161 C278.653119,224.733428 270.250392,220.969158 260.963601,220.969158" id="Fill-54" fill="#7ED2EF"></path>
            <path d="M286.345466,255.756347 C287.838662,257.309633 287.787627,259.780733 286.235164,261.273929 C284.681878,262.767949 282.209955,262.718559 280.716759,261.167743 C278.177338,258.532013 275.109453,256.402521 271.684322,254.949659 C268.409003,253.556887 264.783023,252.785595 260.963601,252.785595 C257.142534,252.785595 253.518199,253.556887 250.241235,254.949659 C246.816926,256.402521 243.749865,258.532013 241.209621,261.167743 C239.715601,262.718559 237.244502,262.767949 235.692039,261.273929 C234.138752,259.780733 234.091833,257.309633 235.585852,255.756347 C238.852939,252.367434 242.79254,249.632103 247.187344,247.764373 C251.433158,245.959203 256.092193,244.959897 260.963601,244.959897 C265.83501,244.959897 270.493222,245.959203 274.739035,247.764373 C279.133839,249.629633 283.073441,252.367434 286.345466,255.756347" id="Fill-55" fill="#1C1038"></path>
            <path d="M289.906418,246.791408 C291.136206,245.024103 290.702405,242.591691 288.931807,241.36108 C287.162032,240.131293 284.732913,240.567563 283.503949,242.334868 C282.342482,243.994341 280.929955,245.483421 279.312463,246.737904 C277.725428,247.968514 275.951537,248.971113 274.037711,249.686431 C273.790765,249.779447 273.55699,249.894688 273.339678,250.028862 L279.946289,255.562907 C281.423023,254.791614 282.810032,253.897672 284.099087,252.89919 C286.337235,251.163164 288.293865,249.097878 289.906418,246.791408" id="Fill-56" fill="#1C1038"></path>
            <path d="M278.185569,239.2711 C278.916527,237.246971 277.870302,235.008 275.849466,234.272926 C273.824514,233.538675 271.586367,234.585723 270.851293,236.610675 C270.157376,238.510508 269.173711,240.312386 267.932399,241.939756 C266.714958,243.535846 265.256334,244.962367 263.587807,246.145235 C263.376257,246.298341 263.179524,246.468733 263.005016,246.654765 L270.812605,250.306264 C272.037453,249.182662 273.152,247.961929 274.139781,246.665466 C275.858521,244.413325 277.215074,241.914238 278.185569,239.2711" id="Fill-57" fill="#1C1038"></path>
            <path d="M155.817569,220.969158 C165.101068,220.969158 173.50791,224.733428 179.59182,230.818161 C185.67573,236.898778 189.440823,245.307267 189.440823,254.590765 C189.440823,263.875087 185.67573,272.281929 179.59182,278.364193 C173.50791,284.448926 165.101068,288.21155 155.817569,288.21155 C146.534071,288.21155 138.127228,284.448926 132.044141,278.364193 C125.960232,272.281929 122.196785,263.875087 122.196785,254.590765 C122.196785,245.307267 125.960232,236.898778 132.044141,230.818161 C138.127228,224.733428 146.534071,220.969158 155.817569,220.969158" id="Fill-58" fill="#7ED2EF"></path>
            <path d="M130.43982,255.756347 C128.946624,257.309633 128.993543,259.780733 130.546006,261.273929 C132.099293,262.767949 134.571215,262.718559 136.063588,261.167743 C138.603833,258.532013 141.675833,256.402521 145.096849,254.949659 C148.376283,253.556887 151.997325,252.785595 155.817569,252.785595 C159.638637,252.785595 163.262971,253.556887 166.539113,254.949659 C169.964244,256.402521 173.032129,258.532013 175.57155,261.167743 C177.067215,262.718559 179.536669,262.767949 181.089955,261.273929 C182.642418,259.780733 182.693453,257.309633 181.198611,255.756347 C177.928232,252.367434 173.989453,249.632103 169.593826,247.764373 C165.348013,245.959203 160.688977,244.959897 155.817569,244.959897 C150.946984,244.959897 146.292064,245.959203 142.042135,247.764373 C137.651447,249.629633 133.709376,252.367434 130.43982,255.756347" id="Fill-59" fill="#1C1038"></path>
            <path d="M126.874752,246.791408 C125.644965,245.024103 126.082881,242.591691 127.849363,241.36108 C129.618315,240.131293 132.048257,240.567563 133.280514,242.334868 C134.439511,243.994341 135.852039,245.483421 137.468707,246.737904 C139.05492,247.968514 140.83128,248.971113 142.748399,249.686431 C142.994521,249.779447 143.225003,249.894688 143.441492,250.028862 L136.836527,255.562907 C135.360617,254.791614 133.971138,253.897672 132.682084,252.89919 C130.443936,251.163164 128.486482,249.097878 126.874752,246.791408" id="Fill-60" fill="#1C1038"></path>
            <path d="M138.60054,239.2711 C137.86382,237.246971 138.910045,235.008 140.934997,234.272926 C142.960772,233.538675 145.19892,234.585723 145.93317,236.610675 C146.62791,238.510508 147.611576,240.312386 148.849595,241.939756 C150.065389,243.535846 151.525659,244.962367 153.19254,246.145235 C153.409852,246.298341 153.603293,246.468733 153.777801,246.654765 L145.973505,250.306264 C144.742894,249.182662 143.630817,247.961929 142.642212,246.665466 C140.925119,244.413325 139.565273,241.914238 138.60054,239.2711" id="Fill-61" fill="#1C1038"></path>
            <polygon id="Fill-62" fill="#1C1038" points="200.566534 258.504026 217.354701 258.504026 217.354701 250.678328 200.566534 250.678328"></polygon>
            <path d="M204.476502,82.2146881 C197.008051,81.5067781 189.99892,78.7673312 184.122444,74.479537 C175.601183,68.2655691 169.451421,58.8009775 167.691524,47.5641415 L167.632257,47.1558585 C167.582045,46.8002572 167.532656,46.4463023 167.489852,46.0923473 C128.323498,54.1773376 93.3157042,73.6440386 66.0801029,100.880463 C29.6597814,137.300785 7.1326045,187.617543 7.1326045,243.192592 C7.1326045,298.766817 29.6597814,349.082752 66.0801029,385.503074 C70.2814662,389.704437 74.6680386,393.720592 79.2250032,397.538367 C81.9644502,394.252347 85.8571318,391.899781 90.4075113,391.169646 C92.5106624,387.602932 95.0105723,384.041981 97.933582,380.548527 C122.521929,351.141453 133.911048,349.461402 138.132167,361.532913 C141.275781,370.535717 137.808669,390.253479 133.290392,410.014868 C135.149891,417.860322 135.072514,424.557479 133.656695,430.117042 C142.735228,433.749608 152.138084,436.739293 161.812579,439.032592 C158.677196,430.517916 156.409415,420.612939 155.297338,409.32836 L149.521286,409.32836 C147.400849,409.32836 145.673055,407.641723 145.611318,405.53528 C144.653994,396.077273 144.781582,386.4711 145.881312,376.89209 C146.858392,368.406225 148.606765,359.909659 151.050701,351.535743 C122.505466,341.990482 110.524502,324.598122 106.440026,305.763601 C104.823357,306.439408 103.049466,306.812296 101.194907,306.812296 C97.438045,306.812296 94.0260836,305.286997 91.5418135,302.821659 L91.5031254,302.782971 C89.0221479,300.297878 87.4910868,296.873569 87.4910868,293.108476 C87.4910868,290.21263 88.3965531,287.520103 89.9457235,285.299241 C89.1373891,283.982199 88.4187781,282.586958 87.7931833,281.140682 C85.400283,275.596759 84.3935691,269.202521 84.9928232,263.682469 C83.210701,262.208206 81.6812862,260.665621 80.394701,259.074469 C76.5966817,254.38827 74.8548939,249.287203 74.882881,244.21083 C74.9108682,239.161621 76.6929904,234.226006 79.9518457,229.825441 C82.8658006,225.887486 86.9782637,222.365222 92.0645145,219.586264 C61.8194727,176.826855 70.8000514,144.856489 98.8464566,123.797814 C123.69245,105.14027 163.905852,95.5201029 204.476502,94.9397814 L204.476502,82.2146881" id="Fill-63" fill="#F58F7E"></path>
            <path d="M241.673055,65.4693248 C235.457441,73.9872926 225.995318,80.1395241 214.75519,81.8977749 L214.346907,81.957865 C213.666161,82.0582894 212.985415,82.1414277 212.304669,82.2064566 L212.304669,94.9397814 C252.880257,95.5201029 293.08872,105.14027 317.939653,123.797814 C345.980296,144.855666 354.965814,176.826855 324.720772,219.584617 C329.805376,222.365222 333.91537,225.887486 336.829325,229.825441 C340.08818,234.226006 341.871125,239.161621 341.900759,244.21083 C341.925453,249.287203 340.186135,254.38827 336.386469,259.074469 C335.101531,260.665621 333.574585,262.205736 331.79164,263.682469 C332.387601,269.202521 331.383357,275.596759 328.992103,281.140682 C328.367331,282.585312 327.652013,283.975614 326.843678,285.29101 C328.38791,287.506932 329.295023,290.205222 329.295023,293.108476 C329.295023,296.892502 327.758199,300.320103 325.278868,302.798611 L325.026984,303.029916 C322.56,305.373428 319.236939,306.812296 315.590379,306.812296 C313.731704,306.812296 311.961929,306.439408 310.340322,305.765248 C306.153775,325.072257 293.667395,342.866315 263.537595,352.243653 C265.877814,360.388733 267.553749,368.644939 268.502019,376.89209 C269.613273,386.564116 269.731807,396.264129 268.744849,405.813505 C268.540707,407.82364 266.842547,409.321775 264.864514,409.320129 L264.864514,409.32836 L259.08764,409.32836 C257.950868,420.881286 255.598302,430.985466 252.343563,439.635138 C262.171987,437.446379 271.731241,434.538186 280.959588,430.969003 C279.321518,425.245633 279.138778,418.266958 281.091293,410.014868 C276.577132,390.253479 273.105904,370.535717 276.253633,361.532913 C280.469814,349.461402 291.863871,351.141453 316.450572,380.548527 C319.373582,384.041981 321.875138,387.602932 323.976643,391.169646 C328.950122,391.968103 333.136669,394.699318 335.888463,398.475113 C335.956785,398.568129 336.025106,398.662791 336.088489,398.758277 C341.177209,394.578315 346.052733,390.153055 350.702714,385.503074 C387.125505,349.082752 409.649389,298.766817 409.649389,243.192592 C409.649389,187.615897 387.125505,137.299138 350.702714,100.880463 C323.469582,73.646508 288.464257,54.1806302 249.302019,46.0939936 C248.45582,53.1944952 245.770701,59.8480257 241.673055,65.4693248" id="Fill-64" fill="#F58F7E"></path>
            <path d="M212.308785,393.665441 C212.308785,395.830328 210.556296,397.586109 208.390585,397.586109 C206.229814,397.586109 204.472386,395.830328 204.472386,393.665441 C204.472386,391.503846 206.229814,389.748887 208.390585,389.748887 C210.556296,389.748887 212.308785,391.503846 212.308785,393.665441 Z M212.308785,377.995936 C212.308785,380.157531 210.556296,381.912489 208.390585,381.912489 C206.229814,381.912489 204.472386,380.157531 204.472386,377.995936 C204.472386,375.830225 206.229814,374.075267 208.390585,374.075267 C210.556296,374.075267 212.308785,375.830225 212.308785,377.995936 Z M241.953749,374.817749 C238.38045,377.255923 233.797968,378.361415 228.221119,377.753106 C222.753749,377.159614 216.24427,374.894302 208.696797,370.561235 C208.594727,370.561235 208.492656,370.563704 208.390585,370.563704 C207.539447,370.563704 206.697363,370.527486 205.863511,370.456695 C198.243601,374.856437 191.672386,377.156322 186.163035,377.753106 C180.582894,378.361415 176.001235,377.255923 172.427113,374.817749 C168.819241,372.356527 166.373659,368.627653 165.071434,364.00072 C164.310019,361.304077 163.94454,358.291344 163.965119,355.051421 C162.099035,354.645608 160.28728,354.211807 158.532322,353.751666 C156.226675,361.667087 154.576257,369.716682 153.648566,377.778624 C152.733222,385.734379 152.524965,393.682727 153.095408,401.504309 L261.290392,401.504309 C261.85672,393.682727 261.652579,385.734379 260.737235,377.778624 C259.831768,369.906006 258.235678,362.049852 256.014817,354.315524 C254.207177,354.754264 252.339447,355.166662 250.415743,355.549428 C250.39928,358.602495 250.033801,361.442367 249.314367,364.00072 C248.008849,368.627653 245.561621,372.356527 241.953749,374.817749 L241.953749,374.817749 Z" id="Fill-65" fill="#FFFFFF"></path>
        </g>
    </g>
</svg>